{"title":"The Last Exorcism Part 2 2013 BRRip 480p x264 - VYTO [P2PDL]","uid":8546523,"size":323147604,"categoryP":"video","categoryS":"movies","magnet":"?xt=urn:btih:648914097a7bcfc51e3f4272210d3243288af45f&amp;dn=The+Last+Exorcism+Part+2+2013+BRRip+480p+x264+-+VYTO+%5BP2PDL%5D&amp;tr=udp%3A%2F%2Ftracker.openbittorrent.com%3A80&amp;tr=udp%3A%2F%2Fopen.demonii.com%3A1337&amp;tr=udp%3A%2F%2Ftracker.coppersurfer.tk%3A6969&amp;tr=udp%3A%2F%2Fexodus.desync.com%3A6969","seeders":1,"leechers":1,"uploader":"ValidusVyto","files":-1,"time":1370538132,"description":"_________________________  Visit us at _________________________\n  &lt;a href=&quot;\nhttp://p2pdl.com&quot; rel=&quot;nofollow&quot; target=&quot;_NEW&quot;&gt;\nhttp://p2pdl.com&lt;/a&gt;  ____________________________ &lt;a href=&quot; http://p2pdl.com&quot; rel=&quot;nofollow&quot; target=&quot;_NEW&quot;&gt; http://p2pdl.com&lt;/a&gt;\n\n\nThe Last Exorcism Part 2 2013 BRRip 480p x264 - VYTO\n\n\nGenre: Horror | Thriller\nPlot: As Nell Sweetzer tries to build a new life after the events of the first movie, the evil force\nthat once possessed her returns with an even more horrific plan.\nDirector: Ed Gass-Donnelly \nStars: Ashley Bell, Julia Garner, Spencer Treat Clark.\nRated: PG-13 for horror violence, terror and brief language.\n\n\nInfo: &lt;a href=&quot;\nhttp://www.imdb.com/title/tt2034139/&quot; rel=&quot;nofollow&quot; target=&quot;_NEW&quot;&gt;\nhttp://www.imdb.com/title/tt2034139/&lt;/a&gt;\n\nTrailer:\n\n\nFormat                         : MPEG-4\nFormat profile                 : Base Media\nCodec ID                       : isom\nFile size                      : 302 MiB\nDuration                       : 1h 30mn\nOverall bit rate mode          : Variable\nOverall bit rate               : 467 Kbps\nSource                         : UNRATED.720p.Bluray.x264-BLOW \n\nVideo\nFormat                         : AVC\nBit rate                       : 429 Kbps\nWidth                          : 720 pixels\nHeight                         : 304 pixels\nDisplay aspect ratio           : 2.35:1\nFrame rate mode                : Constant\nFrame rate                     : 23.976 fps\nStream size                    : 274 MiB (91%)\nWriting library                : x264 core 130 r2273\n\nAudio\nFormat                         : AAC\nBit rate mode                  : Variable\nBit rate                       : 39.6 Kbps\nChannel(s)                     : 2 channels\nChannel positions              : Front: L R\nSampling rate                  : 48.0 KHz\nStream size                    : 25.6 MiB (8%)\nLanguage                       : English\n\nSubtitle                       : Yes(English)\n &lt;a href=&quot;\nhttp://ultraimg.com/images/YZrvR.png&quot; rel=&quot;nofollow&quot; target=&quot;_NEW&quot;&gt;\nhttp://ultraimg.com/images/YZrvR.png&lt;/a&gt; &lt;a href=&quot;\nhttp://ultraimg.com/images/WAvTx.png&quot; rel=&quot;nofollow&quot; target=&quot;_NEW&quot;&gt;\nhttp://ultraimg.com/images/WAvTx.png&lt;/a&gt; &lt;a href=&quot;\nhttp://ultraimg.com/images/olwdJ.png&quot; rel=&quot;nofollow&quot; target=&quot;_NEW&quot;&gt;\nhttp://ultraimg.com/images/olwdJ.png&lt;/a&gt; &lt;a href=&quot;\nhttp://ultraimg.com/images/Mnlwz.png&quot; rel=&quot;nofollow&quot; target=&quot;_NEW&quot;&gt;\nhttp://ultraimg.com/images/Mnlwz.png&lt;/a&gt; &lt;a href=&quot;\nhttp://ultraimg.com/images/0pmfA.png&quot; rel=&quot;nofollow&quot; target=&quot;_NEW&quot;&gt;\nhttp://ultraimg.com/images/0pmfA.png&lt;/a&gt; &lt;a href=&quot;\nhttp://ultraimg.com/images/i9qbF.png&quot; rel=&quot;nofollow&quot; target=&quot;_NEW&quot;&gt;\nhttp://ultraimg.com/images/i9qbF.png&lt;/a&gt; &lt;a href=&quot;\nhttp://ultraimg.com/images/beQ.png&quot; rel=&quot;nofollow&quot; target=&quot;_NEW&quot;&gt;\nhttp://ultraimg.com/images/beQ.png&lt;/a&gt; &lt;a href=&quot;\nhttp://ultraimg.com/images/l6EOG.png&quot; rel=&quot;nofollow&quot; target=&quot;_NEW&quot;&gt;\nhttp://ultraimg.com/images/l6EOG.png&lt;/a&gt; &lt;a href=&quot;\nhttp://ultraimg.com/images/Gb2N8.png&quot; rel=&quot;nofollow&quot; target=&quot;_NEW&quot;&gt;\nhttp://ultraimg.com/images/Gb2N8.png&lt;/a&gt; &lt;a href=&quot;\nhttp://ultraimg.com/images/PDhrq.png&quot; rel=&quot;nofollow&quot; target=&quot;_NEW&quot;&gt;\nhttp://ultraimg.com/images/PDhrq.png&lt;/a&gt;\n\n\n----------------------------------------------------------------------------------------------------\n\n\nEncoded using revolutionary 10bit encoding, which enables us to provide you more crispier \nand sharper images at small sizes, just make sure you follow our instructions without a fault.\nRecommend to you to use latest version of VLC player. Install K-Lite Codec Pack or shark007 codecs\nin case of any kind of problem in playback (For non-VLC Media Player users). Alternatively, install\nCore AVC codecs, the fastest decoder that there is coupled with Community Center Codec Pack and play\non Windows Media Player Classic. Check sample to be sure.\nEnjoy!\n\nEncoder Notes:Looking For Early Access To Anything You Can Provide DVDScr, R5, DVDR, BluRay, Direct\nAudio, Music Releases and Seedboxes. We require dedicated servers, so as to do more \nand fast releases of movies.\nIf You Got anything to offer please contact us at &quot;&lt;a class=&quot;__cf_email__&quot; href=&quot;/cdn-cgi/l/email-protection&quot; data-cfemail=&quot;e4878b8a90858790a494d6948088ca878b89&quot;&gt;[email&amp;#160;protected]&lt;/a&gt;&lt;script cf-hash='f9e31' type=&quot;text/javascript&quot;&gt;\n/* &lt;![CDATA[ */!function(){try{var t=&quot;currentScript&quot;in document?document.currentScript:function(){for(var t=document.getElementsByTagName(&quot;script&quot;),e=t.length;e--;)if(t[e].getAttribute(&quot;cf-hash&quot;))return t[e]}();if(t&amp;&amp;t.previousSibling){var e,r,n,i,c=t.previousSibling,a=c.getAttribute(&quot;data-cfemail&quot;);if(a){for(e=&quot;&quot;,r=parseInt(a.substr(0,2),16),n=2;a.length-n;n+=2)i=parseInt(a.substr(n,2),16)^r,e+=String.fromCharCode(i);e=document.createTextNode(e),c.parentNode.replaceChild(e,c)}}}catch(u){}}();/* ]]&gt; */&lt;/script&gt;&quot;.\n\nFace book Fan Page:   &lt;a href=&quot;\nhttp://www.fb.me/p2pdl&quot; rel=&quot;nofollow&quot; target=&quot;_NEW&quot;&gt;\nhttp://www.fb.me/p2pdl&lt;/a&gt;","torrent":{"xt":"urn:btih:648914097a7bcfc51e3f4272210d3243288af45f","amp;dn":"The+Last+Exorcism+Part+2+2013+BRRip+480p+x264+-+VYTO+%5BP2PDL%5D","amp;tr":["udp%3A%2F%2Ftracker.openbittorrent.com%3A80","udp%3A%2F%2Fopen.demonii.com%3A1337","udp%3A%2F%2Ftracker.coppersurfer.tk%3A6969","udp%3A%2F%2Fexodus.desync.com%3A6969"],"infoHash":"648914097a7bcfc51e3f4272210d3243288af45f","infoHashBuffer":{"type":"Buffer","data":[100,137,20,9,122,123,207,197,30,63,66,114,33,13,50,67,40,138,244,95]},"announce":[],"urlList":[]}}